# xmcd CD database file
#
# Track frame offsets:
#	150
#	8250
#	51731
#	102204
#	126014
#	166206
#	196282
#	231213
#	298652
#
# Disc length: 4648 seconds
#
# Revision: 1
# Processed by: cddbd v1.5.2PL0 Copyright (c) Steve Scherf et al.
# Submitted via: CDex 1.51
#
DISCID=74122609
DTITLE=Various Artist - The Meditation Experience vol. 3
DYEAR=1900
DGENRE=New Age
TTITLE0=Introduction
TTITLE1=Alan Watts - A Listening Meditation
TTITLE2=Sharon Salzberg - Offering Lovingkindness Toward Others
TTITLE3=Neil Douglas-Klotz, Ph. D - Making a Decision/Releasing Unripeness
TTITLE4=Jack Kornfield, Ph. D - Meditation on Forgiveness
TTITLE5=Pema Choedroen - Guided Mindfulness Meditation
TTITLE6=Rick Jarow, Ph. D - An Abundance Meditation
TTITLE7=Cheri Huber - Guided Imagery to Explore Your Emotions
TTITLE8=Rabbi David A. Cooper - Tehora He "Pure Soul" Meditation
EXTD=
EXTT0=
EXTT1=
EXTT2=
EXTT3=
EXTT4=
EXTT5=
EXTT6=
EXTT7=
EXTT8=
PLAYORDER=
